<svg width="123" height="79" viewBox="0 0 123 79" fill="none" xmlns="http://www.w3.org/2000/svg">
<path d="M0.937362 14.0913C0.864459 12.0036 1.45345 10.0463 2.51595 8.42151C2.42855 8.90405 2.37476 9.3988 2.35714 9.90333L1.57413 32.3258L0.937362 14.0913ZM2.85683 9.92078C2.88728 9.0488 3.03134 8.20757 3.27428 7.41082C4.98759 5.41024 7.50128 4.1061 10.3412 4.00693L61.6105 2.21657L112.88 4.00694C115.72 4.10611 118.234 5.41027 119.947 7.41085C120.19 8.20759 120.334 9.04881 120.365 9.92077L121.397 39.4893L120.365 69.0578C120.334 69.9297 120.19 70.771 119.947 71.5677C118.234 73.5683 115.72 74.8724 112.88 74.9716L61.6105 76.762L10.3412 74.9716C7.50128 74.8724 4.98759 73.5683 3.27428 71.5677C3.03134 70.771 2.88728 69.9297 2.85683 69.0578L1.82428 39.4893L2.85683 9.92078ZM54.4471 1.96641L10.3237 3.50724C7.76781 3.59649 5.46323 4.61417 3.72276 6.22483C5.30835 2.74077 8.87772 0.375096 12.9412 0.516995L54.4471 1.96641ZM112.898 3.50725L68.7739 1.96641L110.28 0.516982C114.344 0.375083 117.913 2.74077 119.499 6.22487C117.758 4.61419 115.454 3.5965 112.898 3.50725ZM120.864 9.90332C120.847 9.3988 120.793 8.90407 120.705 8.42153C121.768 10.0464 122.357 12.0036 122.284 14.0913L121.647 32.3258L120.864 9.90332ZM120.864 69.0752L121.647 46.6527L122.284 64.8873C122.357 66.9749 121.768 68.9322 120.705 70.557C120.793 70.0745 120.847 69.5797 120.864 69.0752ZM112.898 75.4713C115.454 75.382 117.758 74.3644 119.499 72.7537C117.913 76.2378 114.344 78.6035 110.28 78.4616L68.774 77.0121L112.898 75.4713ZM10.3237 75.4713L54.4471 77.0121L12.9412 78.4615C8.87772 78.6034 5.30835 76.2378 3.72276 72.7537C5.46323 74.3644 7.76781 75.382 10.3237 75.4713ZM2.35714 69.0752C2.37476 69.5797 2.42855 70.0745 2.51595 70.557C1.45345 68.9322 0.864459 66.975 0.937362 64.8873L1.57413 46.6527L2.35714 69.0752Z" stroke="#EDDEE3" stroke-width="0.5"/>
</svg>
