<svg width="227" height="227" viewBox="0 0 227 227" fill="none" xmlns="http://www.w3.org/2000/svg">
<path d="M0.707107 113.137L13.0548 100.789L20.1837 113.137L13.0548 125.485L0.707107 113.137ZM13.7868 126.217L20.761 114.137L26.7499 124.51L23.6498 136.08L13.7868 126.217ZM27.116 123.144L21.3384 113.137L27.116 103.13L29.7973 113.137L27.116 123.144ZM24.4663 136.896L27.457 125.735L32.6371 134.707V145.067L24.4663 136.896ZM32.6371 132.707L27.8231 124.369L30.315 115.069L32.6371 123.735V132.707ZM33.6371 146.067V136.439L38.123 144.209L40.4451 152.875L33.6371 146.067ZM37.123 140.477L33.6371 134.439V127.467L37.123 140.477ZM41.8593 154.289L40.0548 147.555L46.7892 159.219L41.8593 154.289ZM49.5213 161.951L39.0548 143.823L33.6371 123.604V102.671L39.0548 82.4513L49.5212 64.323L64.323 49.5212L82.4512 39.0549L102.671 33.6371H123.603L143.823 39.0549L161.951 49.5213L176.753 64.3229L187.219 82.4512L192.637 102.671V123.603L187.219 143.823L176.753 161.951L161.951 176.753L143.823 187.219L123.603 192.637H102.671L82.4512 187.219L64.323 176.753L49.5213 161.951ZM42.3769 156.221L48.721 162.565L53.207 170.335L44.8689 165.521L42.3769 156.221ZM54.9391 171.335L51.4531 165.297L60.9769 174.821L54.9391 171.335ZM45.2349 166.887L54.207 172.067L59.387 181.039L48.2256 178.049L45.2349 166.887ZM60.7531 181.405L55.9391 173.067L63.709 177.553L70.053 183.897L60.7531 181.405ZM48.5244 179.164L60.0941 182.264L66.083 192.637H52.1346L48.5244 179.164ZM67.2377 192.637L61.4602 182.63L71.4672 185.311L78.7929 192.637H67.2377ZM52.4025 193.637H66.6604L73.7893 205.985L56.9221 210.504L52.4025 193.637ZM74.7893 205.717L67.8151 193.637H79.7929L88.2625 202.107L74.7893 205.717ZM20.761 112.137L13.7868 100.057L23.6498 90.1944L26.7499 101.764L20.761 112.137ZM23.351 89.079L13.2692 99.1608L4.53805 84.0381L19.6608 75.3069L23.351 89.079ZM27.457 100.539L24.4663 89.3779L32.6371 81.2071V91.5672L27.457 100.539ZM32.6371 79.7929L24.1675 88.2625L20.5573 74.7893L32.6371 67.8151V79.7929ZM33.6371 89.8351V80.2071L40.4451 73.3991L38.123 82.0653L33.6371 89.8351ZM40.9627 71.4672L33.6371 78.7929V67.2377L43.6441 61.4602L40.9627 71.4672ZM40.0548 78.7192L41.8593 71.9849L46.7892 67.055L40.0548 78.7192ZM48.721 63.7089L42.3769 70.053L44.8689 60.753L53.207 55.939L48.721 63.7089ZM60.9769 51.4531L51.4531 60.9769L54.9391 54.939L60.9769 51.4531ZM63.709 48.721L55.9391 53.207L60.7531 44.8689L70.053 42.377L63.709 48.721ZM71.4672 40.9627L61.4602 43.6441L67.2377 33.6371H78.7929L71.4672 40.9627ZM66.083 33.6371L60.0941 44.0102L48.5244 47.1102L52.1346 33.6371H66.083ZM79.7929 32.6371H67.8151L74.7893 20.5574L88.2625 24.1675L79.7929 32.6371ZM73.7893 20.2894L66.6604 32.6371H52.4025L56.9221 15.7699L73.7893 20.2894ZM33.6371 33.6371H51.0993L47.4091 47.4091L33.6371 51.0993V33.6371ZM33.6371 52.1346L47.1102 48.5245L44.0101 60.0941L33.6371 66.083V52.1346ZM54.207 54.207L45.2349 59.387L48.2256 48.2256L59.387 45.2349L54.207 54.207ZM32.6371 52.4025V66.6604L20.2894 73.7893L15.7698 56.9221L32.6371 52.4025ZM89.079 23.351L75.3069 19.6608L84.0381 4.53808L99.1608 13.2692L89.079 23.351ZM90.1943 23.6499L100.057 13.7868L112.137 20.761L101.764 26.7499L90.1943 23.6499ZM103.13 27.116L113.137 21.3384L123.144 27.116L113.137 29.7974L103.13 27.116ZM124.51 26.7499L114.137 20.761L126.217 13.7868L136.08 23.6499L124.51 26.7499ZM115.069 30.315L124.369 27.8231L132.707 32.6371H123.735L115.069 30.315ZM134.707 32.6371L125.735 27.4571L136.896 24.4663L145.067 32.6371H134.707ZM127.467 33.6371H134.439L140.477 37.123L127.467 33.6371ZM144.209 38.123L136.439 33.6371H146.067L152.875 40.4451L144.209 38.123ZM159.219 46.7893L147.555 40.0549L154.289 41.8593L159.219 46.7893ZM162.565 48.7211L156.221 42.377L165.521 44.8689L170.335 53.207L162.565 48.7211ZM172.067 54.207L166.887 45.2349L178.049 48.2256L181.039 59.387L172.067 54.207ZM177.75 47.1103L166.18 44.0102L160.191 33.6371H174.14L177.75 47.1103ZM182.264 60.0941L179.164 48.5245L192.637 52.1346V66.0831L182.264 60.0941ZM192.637 51.0993L178.865 47.4091L175.175 33.6371H192.637V51.0993ZM169.352 15.7699L173.872 32.6371H159.614L152.485 20.2894L169.352 15.7699ZM151.485 20.5574L158.459 32.6371H146.481L138.012 24.1675L151.485 20.5574ZM154.807 40.9628L147.481 33.6371H159.036L164.814 43.6441L154.807 40.9628ZM150.967 19.6608L137.195 23.351L127.113 13.2692L142.236 4.53805L150.967 19.6608ZM125.485 13.0548L113.137 20.1837L100.789 13.0548L113.137 0.707107L125.485 13.0548ZM193.637 66.6604V52.4025L210.504 56.9221L205.985 73.7893L193.637 66.6604ZM193.637 67.8151L205.717 74.7893L202.107 88.2625L193.637 79.7929V67.8151ZM193.637 81.2071L201.808 89.3778L198.817 100.539L193.637 91.5672V81.2071ZM199.524 101.764L202.624 90.1943L212.487 100.057L205.513 112.137L199.524 101.764ZM193.637 93.5672L198.451 101.905L195.959 111.205L193.637 102.539V93.5672ZM196.477 113.137L199.158 103.13L204.936 113.137L199.158 123.144L196.477 113.137ZM193.637 106.403L195.442 113.137L193.637 119.871V106.403ZM193.637 123.735L195.959 115.069L198.451 124.369L193.637 132.707V123.735ZM189.151 140.477L192.637 127.467V134.439L189.151 140.477ZM188.151 144.209L192.637 136.439V146.067L185.829 152.875L188.151 144.209ZM185.311 154.807L192.637 147.481V159.036L182.63 164.814L185.311 154.807ZM193.637 158.459V146.481L202.107 138.012L205.717 151.485L193.637 158.459ZM182.264 166.18L192.637 160.191V174.14L179.164 177.75L182.264 166.18ZM193.637 173.872V159.614L205.985 152.485L210.504 169.352L193.637 173.872ZM221.736 142.236L206.613 150.967L202.923 137.195L213.005 127.113L221.736 142.236ZM212.487 126.217L202.624 136.08L199.524 124.51L205.513 114.137L212.487 126.217ZM193.637 134.707L198.817 125.735L201.808 136.896L193.637 145.067V134.707ZM213.219 125.485L206.09 113.137L213.219 100.789L225.567 113.137L213.219 125.485ZM213.005 99.1608L202.923 89.079L206.613 75.307L221.736 84.0381L213.005 99.1608ZM178.865 178.865L192.637 175.175V192.637H175.175L178.865 178.865ZM177.75 179.164L174.14 192.637H160.191L166.18 182.264L177.75 179.164ZM164.814 182.63L159.036 192.637H147.481L154.807 185.311L164.814 182.63ZM146.481 193.637H158.459L151.485 205.717L138.012 202.107L146.481 193.637ZM152.875 185.829L146.067 192.637H136.439L144.209 188.151L152.875 185.829ZM134.707 193.637H145.067L136.896 201.808L125.735 198.817L134.707 193.637ZM140.477 189.151L134.439 192.637H127.467L140.477 189.151ZM123.735 193.637H132.707L124.369 198.451L115.069 195.959L123.735 193.637ZM106.403 193.637H119.871L113.137 195.442L106.403 193.637ZM102.539 193.637L111.205 195.959L101.905 198.451L93.5671 193.637H102.539ZM91.5671 193.637L100.539 198.817L89.3778 201.808L81.2071 193.637H91.5671ZM90.1943 202.624L101.764 199.524L112.137 205.513L100.057 212.487L90.1943 202.624ZM75.3069 206.613L89.079 202.923L99.1608 213.005L84.0381 221.736L75.3069 206.613ZM113.137 225.567L100.789 213.219L113.137 206.09L125.485 213.219L113.137 225.567ZM126.217 212.487L114.137 205.513L124.51 199.524L136.08 202.624L126.217 212.487ZM113.137 196.477L123.144 199.158L113.137 204.936L103.13 199.158L113.137 196.477ZM127.113 213.005L137.195 202.923L150.967 206.613L142.236 221.736L127.113 213.005ZM152.485 205.985L159.614 193.637H173.872L169.352 210.504L152.485 205.985ZM89.8351 192.637H80.2071L73.3991 185.829L82.0652 188.151L89.8351 192.637ZM78.7191 186.219L71.9849 184.415L67.055 179.485L78.7191 186.219ZM91.8351 192.637L85.7972 189.151L98.807 192.637H91.8351ZM154.289 184.415L147.555 186.219L159.219 179.485L154.289 184.415ZM156.221 183.897L162.565 177.553L170.335 173.067L165.521 181.405L156.221 183.897ZM166.887 181.039L172.067 172.067L181.039 166.887L178.049 178.049L166.887 181.039ZM181.405 165.521L173.067 170.335L177.553 162.565L183.897 156.221L181.405 165.521ZM186.219 147.555L184.415 154.289L179.485 159.219L186.219 147.555ZM174.821 165.297L171.335 171.335L165.297 174.821L174.821 165.297ZM192.637 91.8351V98.8071L189.151 85.7972L192.637 91.8351ZM192.637 89.8351L188.151 82.0652L185.829 73.399L192.637 80.2071V89.8351ZM192.637 78.7929L185.311 71.4672L182.63 61.4602L192.637 67.2378V78.7929ZM181.405 60.7531L183.897 70.053L177.553 63.7089L173.067 55.9391L181.405 60.7531ZM165.297 51.4532L171.335 54.9391L174.821 60.9769L165.297 51.4532ZM179.485 67.055L184.415 71.9848L186.219 78.7191L179.485 67.055ZM113.137 30.8326L119.871 32.6371H106.403L113.137 30.8326ZM111.205 30.315L102.539 32.6371H93.5671L101.905 27.8231L111.205 30.315ZM100.539 27.457L91.5671 32.6371H81.2071L89.3778 24.4664L100.539 27.457ZM80.2071 33.6371H89.8351L82.0652 38.123L73.3991 40.4451L80.2071 33.6371ZM67.055 46.7892L71.9849 41.8593L78.7191 40.0549L67.055 46.7892ZM85.7973 37.123L91.8351 33.6371H98.807L85.7973 37.123ZM33.6371 91.8351L37.123 85.7974L33.6371 98.8069V91.8351ZM32.6371 93.5672V102.539L30.315 111.205L27.8231 101.905L32.6371 93.5672ZM32.6371 119.871L30.8326 113.137L32.6371 106.403V119.871ZM47.4091 178.865L51.0993 192.637H33.6371V175.175L47.4091 178.865ZM47.1102 177.75L33.6371 174.14V160.191L44.0101 166.18L47.1102 177.75ZM32.6371 159.614V173.872L15.7698 169.352L20.2894 152.485L32.6371 159.614ZM43.6441 164.814L33.6371 159.036V147.481L40.9627 154.807L43.6441 164.814ZM32.6371 146.481V158.459L20.5573 151.485L24.1675 138.012L32.6371 146.481ZM13.2692 127.113L23.351 137.195L19.6608 150.967L4.53805 142.236L13.2692 127.113Z" stroke="#D8B9C3"/>
</svg>
