<svg width="99" height="31" viewBox="0 0 99 31" fill="none" xmlns="http://www.w3.org/2000/svg">
<path d="M35.2246 4.5332C36.0814 4.5332 36.724 4.72461 37.1523 5.10742C37.5807 5.49023 37.7949 6.05762 37.7949 6.80957V9.53027C37.7949 9.8903 37.9453 10.0703 38.2461 10.0703H38.4854C38.6403 10.0703 38.7497 10.1068 38.8135 10.1797C38.8818 10.248 38.916 10.3665 38.916 10.5352C38.916 10.7038 38.8818 10.8245 38.8135 10.8975C38.7497 10.9658 38.6403 11 38.4854 11H38.0479C37.7516 11 37.4964 10.9271 37.2822 10.7812C37.0726 10.6309 36.9359 10.4121 36.8721 10.125C36.4984 10.4531 36.0928 10.7061 35.6553 10.8838C35.2223 11.0615 34.762 11.1504 34.2744 11.1504C33.8141 11.1504 33.4062 11.0729 33.0508 10.918C32.6999 10.7585 32.4242 10.5283 32.2236 10.2275C32.0231 9.92676 31.9229 9.56901 31.9229 9.1543C31.9229 8.43424 32.1803 7.90332 32.6953 7.56152C33.2103 7.21517 33.8757 7.04199 34.6914 7.04199C35.416 7.04199 36.1087 7.1582 36.7695 7.39062V6.80957C36.7695 6.36751 36.6442 6.04395 36.3936 5.83887C36.1475 5.62923 35.7487 5.52441 35.1973 5.52441C34.8555 5.52441 34.5 5.57227 34.1309 5.66797C33.7617 5.76367 33.4108 5.89583 33.0781 6.06445C33.0007 6.10547 32.93 6.12598 32.8662 6.12598C32.7158 6.12598 32.5905 6.0166 32.4902 5.79785C32.4401 5.68848 32.415 5.59733 32.415 5.52441C32.415 5.36491 32.4993 5.24186 32.668 5.15527C33.0508 4.95475 33.4609 4.80208 33.8984 4.69727C34.3405 4.58789 34.7826 4.5332 35.2246 4.5332ZM34.6982 8.00586C34.1742 8.00586 33.7594 8.09701 33.4541 8.2793C33.1533 8.45703 33.0029 8.74186 33.0029 9.13379C33.0029 9.46647 33.1169 9.72624 33.3447 9.91309C33.5771 10.0954 33.9007 10.1865 34.3154 10.1865C35.2223 10.1865 36.0404 9.81055 36.7695 9.05859V8.31348C36.4596 8.21322 36.127 8.13802 35.7715 8.08789C35.416 8.0332 35.0583 8.00586 34.6982 8.00586ZM44.3643 4.5332C44.779 4.5332 45.139 4.62435 45.4443 4.80664C45.7497 4.98438 45.9844 5.24186 46.1484 5.5791C46.3125 5.91634 46.3945 6.31055 46.3945 6.76172V10.0703H46.9551C47.11 10.0703 47.2194 10.1068 47.2832 10.1797C47.3516 10.248 47.3857 10.3665 47.3857 10.5352C47.3857 10.7038 47.3516 10.8245 47.2832 10.8975C47.2194 10.9658 47.11 11 46.9551 11H44.7402C44.5853 11 44.4736 10.9658 44.4053 10.8975C44.3415 10.8245 44.3096 10.7038 44.3096 10.5352C44.3096 10.3665 44.3415 10.248 44.4053 10.1797C44.4736 10.1068 44.5853 10.0703 44.7402 10.0703H45.3691V6.86426C45.3691 6.45866 45.2757 6.13737 45.0889 5.90039C44.902 5.66341 44.6263 5.54492 44.2617 5.54492C43.8743 5.54492 43.512 5.65658 43.1748 5.87988C42.8421 6.10319 42.5755 6.41081 42.375 6.80273C42.1745 7.19466 42.0742 7.63216 42.0742 8.11523V10.0703H42.7031C42.8581 10.0703 42.9674 10.1068 43.0312 10.1797C43.0996 10.248 43.1338 10.3665 43.1338 10.5352C43.1338 10.7038 43.0996 10.8245 43.0312 10.8975C42.9674 10.9658 42.8581 11 42.7031 11H40.4883C40.3333 11 40.2217 10.9658 40.1533 10.8975C40.0895 10.8245 40.0576 10.7038 40.0576 10.5352C40.0576 10.3665 40.0895 10.248 40.1533 10.1797C40.2217 10.1068 40.3333 10.0703 40.4883 10.0703H41.0488V5.61328H40.3516C40.1966 5.61328 40.085 5.5791 40.0166 5.51074C39.9528 5.43783 39.9209 5.31706 39.9209 5.14844C39.9209 4.97982 39.9528 4.86133 40.0166 4.79297C40.085 4.72005 40.1966 4.68359 40.3516 4.68359H41.5752C41.7301 4.68359 41.8395 4.72005 41.9033 4.79297C41.9717 4.86133 42.0059 4.97982 42.0059 5.14844V5.96875C42.3066 5.50391 42.6576 5.14844 43.0586 4.90234C43.4642 4.65625 43.8994 4.5332 44.3643 4.5332ZM54.3721 2.03125C54.527 2.03125 54.6364 2.06771 54.7002 2.14062C54.7686 2.20898 54.8027 2.32747 54.8027 2.49609V10.0703H55.3633C55.5182 10.0703 55.6276 10.1068 55.6914 10.1797C55.7598 10.248 55.7939 10.3665 55.7939 10.5352C55.7939 10.7038 55.7598 10.8245 55.6914 10.8975C55.6276 10.9658 55.5182 11 55.3633 11H54.2764C54.1214 11 54.0098 10.9658 53.9414 10.8975C53.8776 10.8245 53.8457 10.7038 53.8457 10.5352V9.98828C53.5586 10.362 53.2259 10.6491 52.8477 10.8496C52.4694 11.0501 52.057 11.1504 51.6104 11.1504C51.0452 11.1504 50.5394 11.0182 50.0928 10.7539C49.6462 10.485 49.2952 10.1022 49.04 9.60547C48.7848 9.10417 48.6572 8.51628 48.6572 7.8418C48.6572 7.16732 48.7848 6.58171 49.04 6.08496C49.2952 5.58366 49.6462 5.20085 50.0928 4.93652C50.5394 4.66764 51.0452 4.5332 51.6104 4.5332C52.4671 4.5332 53.1895 4.90918 53.7773 5.66113V2.96094H52.6699C52.515 2.96094 52.4033 2.92676 52.335 2.8584C52.2712 2.78548 52.2393 2.66471 52.2393 2.49609C52.2393 2.32747 52.2712 2.20898 52.335 2.14062C52.4033 2.06771 52.515 2.03125 52.6699 2.03125H54.3721ZM51.6787 5.54492C51.2731 5.54492 50.9245 5.6429 50.6328 5.83887C50.3411 6.03027 50.1178 6.29915 49.9629 6.64551C49.8125 6.99186 49.7373 7.39062 49.7373 7.8418C49.7373 8.29297 49.8125 8.69173 49.9629 9.03809C50.1178 9.38444 50.3411 9.6556 50.6328 9.85156C50.9245 10.043 51.2731 10.1387 51.6787 10.1387C52.0843 10.1387 52.4443 10.0475 52.7588 9.86523C53.0778 9.68294 53.3262 9.41862 53.5039 9.07227C53.6862 8.72591 53.7773 8.31576 53.7773 7.8418C53.7773 7.36784 53.6862 6.95768 53.5039 6.61133C53.3262 6.26497 53.0778 6.00065 52.7588 5.81836C52.4443 5.63607 52.0843 5.54492 51.6787 5.54492ZM60.4424 4.5332C61.1032 4.5332 61.666 4.66764 62.1309 4.93652C62.6003 5.20085 62.9603 5.56999 63.2109 6.04395C63.4616 6.51335 63.6051 7.05566 63.6416 7.6709C63.6416 7.82585 63.6074 7.93522 63.5391 7.99902C63.4753 8.06283 63.3659 8.09473 63.2109 8.09473H58.2617C58.2936 8.77376 58.4941 9.28874 58.8633 9.63965C59.237 9.986 59.7633 10.1592 60.4424 10.1592C60.8617 10.1592 61.2764 10.1068 61.6865 10.002C62.0967 9.89258 62.4567 9.74902 62.7666 9.57129C62.8441 9.53027 62.9147 9.50977 62.9785 9.50977C63.138 9.50977 63.2679 9.63053 63.3682 9.87207C63.4092 9.96777 63.4297 10.0544 63.4297 10.1318C63.4297 10.3141 63.3294 10.4554 63.1289 10.5557C62.778 10.7334 62.3633 10.877 61.8848 10.9863C61.4062 11.0957 60.9255 11.1504 60.4424 11.1504C59.7542 11.1504 59.1663 11.0182 58.6787 10.7539C58.1911 10.4896 57.8197 10.109 57.5645 9.6123C57.3092 9.11556 57.1816 8.52539 57.1816 7.8418C57.1816 7.1901 57.3206 6.61361 57.5986 6.1123C57.8766 5.611 58.2617 5.22363 58.7539 4.9502C59.2461 4.6722 59.8089 4.5332 60.4424 4.5332ZM60.4424 5.52441C59.8818 5.52441 59.417 5.66797 59.0479 5.95508C58.6833 6.23763 58.444 6.63184 58.3301 7.1377H62.5068C62.4111 6.61361 62.1901 6.21484 61.8438 5.94141C61.502 5.66341 61.0348 5.52441 60.4424 5.52441ZM70.8672 4.5332C71.2227 4.5332 71.5553 4.62435 71.8652 4.80664C72.0475 4.91602 72.1387 5.05729 72.1387 5.23047C72.1387 5.3125 72.1182 5.4082 72.0771 5.51758C71.9814 5.77734 71.8493 5.90723 71.6807 5.90723C71.6123 5.90723 71.5485 5.889 71.4893 5.85254C71.266 5.72949 71.0267 5.66797 70.7715 5.66797C70.3613 5.66797 69.9489 5.81152 69.5342 6.09863C69.1195 6.38118 68.7777 6.75944 68.5088 7.2334C68.2445 7.70736 68.1123 8.21094 68.1123 8.74414V10.0703H70.416C70.571 10.0703 70.6803 10.1068 70.7441 10.1797C70.8125 10.248 70.8467 10.3665 70.8467 10.5352C70.8467 10.7038 70.8125 10.8245 70.7441 10.8975C70.6803 10.9658 70.571 11 70.416 11H66.0137C65.8587 11 65.7471 10.9658 65.6787 10.8975C65.6149 10.8245 65.583 10.7038 65.583 10.5352C65.583 10.3665 65.6149 10.248 65.6787 10.1797C65.7471 10.1068 65.8587 10.0703 66.0137 10.0703H67.0869V5.61328H66.2188C66.0638 5.61328 65.9521 5.5791 65.8838 5.51074C65.82 5.43783 65.7881 5.31706 65.7881 5.14844C65.7881 4.97982 65.82 4.86133 65.8838 4.79297C65.9521 4.72005 66.0638 4.68359 66.2188 4.68359H67.6133C67.7682 4.68359 67.8776 4.72005 67.9414 4.79297C68.0098 4.86133 68.0439 4.97982 68.0439 5.14844V6.5293C68.2627 6.12826 68.527 5.77734 68.8369 5.47656C69.1468 5.17578 69.4772 4.94336 69.8281 4.7793C70.179 4.61523 70.5254 4.5332 70.8672 4.5332ZM79.3232 4.5332C79.5101 4.5332 79.6423 4.56738 79.7197 4.63574C79.7972 4.7041 79.8359 4.81803 79.8359 4.97754V6.27637C79.8359 6.43587 79.7972 6.5498 79.7197 6.61816C79.6423 6.68652 79.5101 6.7207 79.3232 6.7207C79.1683 6.7207 79.0589 6.66146 78.9951 6.54297C78.7992 6.16927 78.5143 5.90723 78.1406 5.75684C77.7669 5.60189 77.293 5.52441 76.7188 5.52441C76.2767 5.52441 75.9303 5.60417 75.6797 5.76367C75.4336 5.91862 75.3105 6.13737 75.3105 6.41992C75.3105 6.56576 75.3561 6.68424 75.4473 6.77539C75.543 6.86654 75.682 6.94173 75.8643 7.00098C76.0146 7.05111 76.1878 7.08984 76.3838 7.11719C76.5843 7.14453 76.8418 7.17415 77.1562 7.20605C77.5983 7.25618 77.9538 7.30404 78.2227 7.34961C78.4961 7.39062 78.7536 7.45443 78.9951 7.54102C79.3597 7.67318 79.6423 7.86458 79.8428 8.11523C80.0479 8.36589 80.1504 8.69629 80.1504 9.10645C80.1504 9.5166 80.0456 9.87663 79.8359 10.1865C79.6309 10.4919 79.3278 10.7288 78.9268 10.8975C78.5303 11.0661 78.054 11.1504 77.498 11.1504C77.0059 11.1504 76.5729 11.082 76.1992 10.9453C75.8255 10.8086 75.4997 10.6012 75.2217 10.3232V10.7061C75.2217 10.8656 75.1829 10.9795 75.1055 11.0479C75.028 11.1162 74.8958 11.1504 74.709 11.1504C74.5221 11.1504 74.39 11.1162 74.3125 11.0479C74.235 10.9795 74.1963 10.8656 74.1963 10.7061V9.06543C74.1963 8.90592 74.235 8.79199 74.3125 8.72363C74.39 8.65527 74.5221 8.62109 74.709 8.62109C74.8047 8.62109 74.8799 8.64388 74.9346 8.68945C74.9893 8.73047 75.0371 8.80111 75.0781 8.90137C75.2422 9.33887 75.5156 9.65788 75.8984 9.8584C76.2812 10.0589 76.7917 10.1592 77.4297 10.1592C77.9583 10.1592 78.3639 10.0635 78.6465 9.87207C78.929 9.68066 79.0703 9.42546 79.0703 9.10645C79.0703 8.9515 79.0202 8.82389 78.9199 8.72363C78.8197 8.62337 78.6761 8.54134 78.4893 8.47754C78.3298 8.42741 78.1452 8.38639 77.9355 8.35449C77.7305 8.31803 77.4684 8.28385 77.1494 8.25195C76.721 8.20638 76.3633 8.15853 76.0762 8.1084C75.7891 8.05827 75.5247 7.98535 75.2832 7.88965C74.9505 7.75749 74.6908 7.5752 74.5039 7.34277C74.3216 7.10579 74.2305 6.79818 74.2305 6.41992C74.2305 6.02344 74.333 5.68392 74.5381 5.40137C74.7477 5.11426 75.0348 4.89779 75.3994 4.75195C75.7686 4.60612 76.1855 4.5332 76.6504 4.5332C77.0924 4.5332 77.4958 4.59928 77.8604 4.73145C78.2295 4.86361 78.5462 5.04818 78.8105 5.28516V4.97754C78.8105 4.81803 78.8493 4.7041 78.9268 4.63574C79.0042 4.56738 79.1364 4.5332 79.3232 4.5332ZM85.5645 4.5332C86.1888 4.5332 86.7516 4.67448 87.2529 4.95703C87.7542 5.23958 88.1462 5.63379 88.4287 6.13965C88.7158 6.64095 88.8594 7.20833 88.8594 7.8418C88.8594 8.47526 88.7158 9.04492 88.4287 9.55078C88.1462 10.0521 87.7542 10.444 87.2529 10.7266C86.7516 11.0091 86.1888 11.1504 85.5645 11.1504C84.9401 11.1504 84.3773 11.0091 83.876 10.7266C83.3747 10.444 82.9805 10.0521 82.6934 9.55078C82.4108 9.04492 82.2695 8.47526 82.2695 7.8418C82.2695 7.20833 82.4108 6.64095 82.6934 6.13965C82.9805 5.63379 83.3747 5.23958 83.876 4.95703C84.3773 4.67448 84.9401 4.5332 85.5645 4.5332ZM85.5645 5.54492C85.1224 5.54492 84.7327 5.6429 84.3955 5.83887C84.0628 6.03027 83.8053 6.30143 83.623 6.65234C83.4408 6.9987 83.3496 7.39518 83.3496 7.8418C83.3496 8.28841 83.4408 8.68717 83.623 9.03809C83.8053 9.38444 84.0628 9.6556 84.3955 9.85156C84.7327 10.043 85.1224 10.1387 85.5645 10.1387C86.0065 10.1387 86.3939 10.043 86.7266 9.85156C87.0638 9.6556 87.3236 9.38444 87.5059 9.03809C87.6882 8.68717 87.7793 8.28841 87.7793 7.8418C87.7793 7.39518 87.6882 6.9987 87.5059 6.65234C87.3236 6.30143 87.0638 6.03027 86.7266 5.83887C86.3939 5.6429 86.0065 5.54492 85.5645 5.54492ZM94.7314 4.5332C95.1462 4.5332 95.5062 4.62435 95.8115 4.80664C96.1169 4.98438 96.3516 5.24186 96.5156 5.5791C96.6797 5.91634 96.7617 6.31055 96.7617 6.76172V10.0703H97.3223C97.4772 10.0703 97.5866 10.1068 97.6504 10.1797C97.7188 10.248 97.7529 10.3665 97.7529 10.5352C97.7529 10.7038 97.7188 10.8245 97.6504 10.8975C97.5866 10.9658 97.4772 11 97.3223 11H95.1074C94.9525 11 94.8408 10.9658 94.7725 10.8975C94.7087 10.8245 94.6768 10.7038 94.6768 10.5352C94.6768 10.3665 94.7087 10.248 94.7725 10.1797C94.8408 10.1068 94.9525 10.0703 95.1074 10.0703H95.7363V6.86426C95.7363 6.45866 95.6429 6.13737 95.4561 5.90039C95.2692 5.66341 94.9935 5.54492 94.6289 5.54492C94.2415 5.54492 93.8792 5.65658 93.542 5.87988C93.2093 6.10319 92.9427 6.41081 92.7422 6.80273C92.5417 7.19466 92.4414 7.63216 92.4414 8.11523V10.0703H93.0703C93.2253 10.0703 93.3346 10.1068 93.3984 10.1797C93.4668 10.248 93.501 10.3665 93.501 10.5352C93.501 10.7038 93.4668 10.8245 93.3984 10.8975C93.3346 10.9658 93.2253 11 93.0703 11H90.8555C90.7005 11 90.5889 10.9658 90.5205 10.8975C90.4567 10.8245 90.4248 10.7038 90.4248 10.5352C90.4248 10.3665 90.4567 10.248 90.5205 10.1797C90.5889 10.1068 90.7005 10.0703 90.8555 10.0703H91.416V5.61328H90.7188C90.5638 5.61328 90.4521 5.5791 90.3838 5.51074C90.32 5.43783 90.2881 5.31706 90.2881 5.14844C90.2881 4.97982 90.32 4.86133 90.3838 4.79297C90.4521 4.72005 90.5638 4.68359 90.7188 4.68359H91.9424C92.0973 4.68359 92.2067 4.72005 92.2705 4.79297C92.3389 4.86133 92.373 4.97982 92.373 5.14844V5.96875C92.6738 5.50391 93.0247 5.14844 93.4258 4.90234C93.8314 4.65625 94.2666 4.5332 94.7314 4.5332ZM35.2246 20.5332C36.0814 20.5332 36.724 20.7246 37.1523 21.1074C37.5807 21.4902 37.7949 22.0576 37.7949 22.8096V25.5303C37.7949 25.8903 37.9453 26.0703 38.2461 26.0703H38.4854C38.6403 26.0703 38.7497 26.1068 38.8135 26.1797C38.8818 26.248 38.916 26.3665 38.916 26.5352C38.916 26.7038 38.8818 26.8245 38.8135 26.8975C38.7497 26.9658 38.6403 27 38.4854 27H38.0479C37.7516 27 37.4964 26.9271 37.2822 26.7812C37.0726 26.6309 36.9359 26.4121 36.8721 26.125C36.4984 26.4531 36.0928 26.7061 35.6553 26.8838C35.2223 27.0615 34.762 27.1504 34.2744 27.1504C33.8141 27.1504 33.4062 27.0729 33.0508 26.918C32.6999 26.7585 32.4242 26.5283 32.2236 26.2275C32.0231 25.9268 31.9229 25.569 31.9229 25.1543C31.9229 24.4342 32.1803 23.9033 32.6953 23.5615C33.2103 23.2152 33.8757 23.042 34.6914 23.042C35.416 23.042 36.1087 23.1582 36.7695 23.3906V22.8096C36.7695 22.3675 36.6442 22.0439 36.3936 21.8389C36.1475 21.6292 35.7487 21.5244 35.1973 21.5244C34.8555 21.5244 34.5 21.5723 34.1309 21.668C33.7617 21.7637 33.4108 21.8958 33.0781 22.0645C33.0007 22.1055 32.93 22.126 32.8662 22.126C32.7158 22.126 32.5905 22.0166 32.4902 21.7979C32.4401 21.6885 32.415 21.5973 32.415 21.5244C32.415 21.3649 32.4993 21.2419 32.668 21.1553C33.0508 20.9548 33.4609 20.8021 33.8984 20.6973C34.3405 20.5879 34.7826 20.5332 35.2246 20.5332ZM34.6982 24.0059C34.1742 24.0059 33.7594 24.097 33.4541 24.2793C33.1533 24.457 33.0029 24.7419 33.0029 25.1338C33.0029 25.4665 33.1169 25.7262 33.3447 25.9131C33.5771 26.0954 33.9007 26.1865 34.3154 26.1865C35.2223 26.1865 36.0404 25.8105 36.7695 25.0586V24.3135C36.4596 24.2132 36.127 24.138 35.7715 24.0879C35.416 24.0332 35.0583 24.0059 34.6982 24.0059ZM44.3643 20.5332C44.779 20.5332 45.139 20.6243 45.4443 20.8066C45.7497 20.9844 45.9844 21.2419 46.1484 21.5791C46.3125 21.9163 46.3945 22.3105 46.3945 22.7617V26.0703H46.9551C47.11 26.0703 47.2194 26.1068 47.2832 26.1797C47.3516 26.248 47.3857 26.3665 47.3857 26.5352C47.3857 26.7038 47.3516 26.8245 47.2832 26.8975C47.2194 26.9658 47.11 27 46.9551 27H44.7402C44.5853 27 44.4736 26.9658 44.4053 26.8975C44.3415 26.8245 44.3096 26.7038 44.3096 26.5352C44.3096 26.3665 44.3415 26.248 44.4053 26.1797C44.4736 26.1068 44.5853 26.0703 44.7402 26.0703H45.3691V22.8643C45.3691 22.4587 45.2757 22.1374 45.0889 21.9004C44.902 21.6634 44.6263 21.5449 44.2617 21.5449C43.8743 21.5449 43.512 21.6566 43.1748 21.8799C42.8421 22.1032 42.5755 22.4108 42.375 22.8027C42.1745 23.1947 42.0742 23.6322 42.0742 24.1152V26.0703H42.7031C42.8581 26.0703 42.9674 26.1068 43.0312 26.1797C43.0996 26.248 43.1338 26.3665 43.1338 26.5352C43.1338 26.7038 43.0996 26.8245 43.0312 26.8975C42.9674 26.9658 42.8581 27 42.7031 27H40.4883C40.3333 27 40.2217 26.9658 40.1533 26.8975C40.0895 26.8245 40.0576 26.7038 40.0576 26.5352C40.0576 26.3665 40.0895 26.248 40.1533 26.1797C40.2217 26.1068 40.3333 26.0703 40.4883 26.0703H41.0488V21.6133H40.3516C40.1966 21.6133 40.085 21.5791 40.0166 21.5107C39.9528 21.4378 39.9209 21.3171 39.9209 21.1484C39.9209 20.9798 39.9528 20.8613 40.0166 20.793C40.085 20.7201 40.1966 20.6836 40.3516 20.6836H41.5752C41.7301 20.6836 41.8395 20.7201 41.9033 20.793C41.9717 20.8613 42.0059 20.9798 42.0059 21.1484V21.9688C42.3066 21.5039 42.6576 21.1484 43.0586 20.9023C43.4642 20.6562 43.8994 20.5332 44.3643 20.5332ZM51.6104 20.5332C52.057 20.5332 52.4694 20.6335 52.8477 20.834C53.2259 21.0345 53.5586 21.3216 53.8457 21.6953V21.1484C53.8457 20.9798 53.8776 20.8613 53.9414 20.793C54.0098 20.7201 54.1214 20.6836 54.2764 20.6836H55.3633C55.5182 20.6836 55.6276 20.7201 55.6914 20.793C55.7598 20.8613 55.7939 20.9798 55.7939 21.1484C55.7939 21.3171 55.7598 21.4378 55.6914 21.5107C55.6276 21.5791 55.5182 21.6133 55.3633 21.6133H54.8027V27.2051C54.8027 27.7474 54.6865 28.2122 54.4541 28.5996C54.2262 28.9915 53.8936 29.29 53.4561 29.4951C53.0186 29.7002 52.4922 29.8027 51.877 29.8027C51.4395 29.8027 50.9974 29.764 50.5508 29.6865C50.1042 29.6136 49.6872 29.5065 49.2998 29.3652C49.1221 29.3014 49.0332 29.1807 49.0332 29.0029C49.0332 28.93 49.0514 28.8389 49.0879 28.7295C49.1699 28.4788 49.2998 28.3535 49.4775 28.3535C49.5277 28.3535 49.5778 28.3626 49.6279 28.3809C49.9834 28.5085 50.3571 28.6087 50.749 28.6816C51.141 28.7546 51.5169 28.791 51.877 28.791C52.5059 28.791 52.9798 28.6406 53.2988 28.3398C53.6178 28.0436 53.7773 27.6357 53.7773 27.1162V25.7422C53.2122 26.4531 52.4899 26.8086 51.6104 26.8086C51.0452 26.8086 50.5394 26.6833 50.0928 26.4326C49.6462 26.1774 49.2952 25.8128 49.04 25.3389C48.7848 24.8649 48.6572 24.3089 48.6572 23.6709C48.6572 23.0329 48.7848 22.4769 49.04 22.0029C49.2952 21.529 49.6462 21.1667 50.0928 20.916C50.5394 20.6608 51.0452 20.5332 51.6104 20.5332ZM51.6787 21.5449C51.2731 21.5449 50.9245 21.6361 50.6328 21.8184C50.3411 21.9961 50.1178 22.2467 49.9629 22.5703C49.8125 22.8893 49.7373 23.2562 49.7373 23.6709C49.7373 24.0856 49.8125 24.4548 49.9629 24.7783C50.1178 25.0973 50.3411 25.348 50.6328 25.5303C50.9245 25.708 51.2731 25.7969 51.6787 25.7969C52.0843 25.7969 52.4443 25.7126 52.7588 25.5439C53.0778 25.3753 53.3262 25.1315 53.5039 24.8125C53.6862 24.4889 53.7773 24.1084 53.7773 23.6709C53.7773 23.2334 53.6862 22.8551 53.5039 22.5361C53.3262 22.2126 53.0778 21.9665 52.7588 21.7979C52.4443 21.6292 52.0843 21.5449 51.6787 21.5449ZM60.4424 20.5332C61.1032 20.5332 61.666 20.6676 62.1309 20.9365C62.6003 21.2008 62.9603 21.57 63.2109 22.0439C63.4616 22.5133 63.6051 23.0557 63.6416 23.6709C63.6416 23.8258 63.6074 23.9352 63.5391 23.999C63.4753 24.0628 63.3659 24.0947 63.2109 24.0947H58.2617C58.2936 24.7738 58.4941 25.2887 58.8633 25.6396C59.237 25.986 59.7633 26.1592 60.4424 26.1592C60.8617 26.1592 61.2764 26.1068 61.6865 26.002C62.0967 25.8926 62.4567 25.749 62.7666 25.5713C62.8441 25.5303 62.9147 25.5098 62.9785 25.5098C63.138 25.5098 63.2679 25.6305 63.3682 25.8721C63.4092 25.9678 63.4297 26.0544 63.4297 26.1318C63.4297 26.3141 63.3294 26.4554 63.1289 26.5557C62.778 26.7334 62.3633 26.877 61.8848 26.9863C61.4062 27.0957 60.9255 27.1504 60.4424 27.1504C59.7542 27.1504 59.1663 27.0182 58.6787 26.7539C58.1911 26.4896 57.8197 26.109 57.5645 25.6123C57.3092 25.1156 57.1816 24.5254 57.1816 23.8418C57.1816 23.1901 57.3206 22.6136 57.5986 22.1123C57.8766 21.611 58.2617 21.2236 58.7539 20.9502C59.2461 20.6722 59.8089 20.5332 60.4424 20.5332ZM60.4424 21.5244C59.8818 21.5244 59.417 21.668 59.0479 21.9551C58.6833 22.2376 58.444 22.6318 58.3301 23.1377H62.5068C62.4111 22.6136 62.1901 22.2148 61.8438 21.9414C61.502 21.6634 61.0348 21.5244 60.4424 21.5244ZM68.9531 18.0312C69.1081 18.0312 69.2174 18.0677 69.2812 18.1406C69.3496 18.209 69.3838 18.3275 69.3838 18.4961V26.0703H71.5781C71.7331 26.0703 71.8424 26.1068 71.9062 26.1797C71.9746 26.248 72.0088 26.3665 72.0088 26.5352C72.0088 26.7038 71.9746 26.8245 71.9062 26.8975C71.8424 26.9658 71.7331 27 71.5781 27H66.2188C66.0638 27 65.9521 26.9658 65.8838 26.8975C65.82 26.8245 65.7881 26.7038 65.7881 26.5352C65.7881 26.3665 65.82 26.248 65.8838 26.1797C65.9521 26.1068 66.0638 26.0703 66.2188 26.0703H68.3584V18.9609H66.4922C66.3372 18.9609 66.2256 18.9268 66.1572 18.8584C66.0934 18.7855 66.0615 18.6647 66.0615 18.4961C66.0615 18.3275 66.0934 18.209 66.1572 18.1406C66.2256 18.0677 66.3372 18.0312 66.4922 18.0312H68.9531ZM77.1699 20.5332C77.7943 20.5332 78.3571 20.6745 78.8584 20.957C79.3597 21.2396 79.7516 21.6338 80.0342 22.1396C80.3213 22.641 80.4648 23.2083 80.4648 23.8418C80.4648 24.4753 80.3213 25.0449 80.0342 25.5508C79.7516 26.0521 79.3597 26.444 78.8584 26.7266C78.3571 27.0091 77.7943 27.1504 77.1699 27.1504C76.5456 27.1504 75.9827 27.0091 75.4814 26.7266C74.9801 26.444 74.5859 26.0521 74.2988 25.5508C74.0163 25.0449 73.875 24.4753 73.875 23.8418C73.875 23.2083 74.0163 22.641 74.2988 22.1396C74.5859 21.6338 74.9801 21.2396 75.4814 20.957C75.9827 20.6745 76.5456 20.5332 77.1699 20.5332ZM77.1699 21.5449C76.7279 21.5449 76.3382 21.6429 76.001 21.8389C75.6683 22.0303 75.4108 22.3014 75.2285 22.6523C75.0462 22.9987 74.9551 23.3952 74.9551 23.8418C74.9551 24.2884 75.0462 24.6872 75.2285 25.0381C75.4108 25.3844 75.6683 25.6556 76.001 25.8516C76.3382 26.043 76.7279 26.1387 77.1699 26.1387C77.612 26.1387 77.9993 26.043 78.332 25.8516C78.6693 25.6556 78.929 25.3844 79.1113 25.0381C79.2936 24.6872 79.3848 24.2884 79.3848 23.8418C79.3848 23.3952 79.2936 22.9987 79.1113 22.6523C78.929 22.3014 78.6693 22.0303 78.332 21.8389C77.9993 21.6429 77.612 21.5449 77.1699 21.5449Z" fill="#EDDEE3"/>
<path d="M2 7.98607L13.5 2.23607L25 7.98607V21.3232L13.5 27.7121L2 21.3232V7.98607Z" stroke="url(#paint0_linear_22_3)" stroke-width="4"/>
<defs>
<linearGradient id="paint0_linear_22_3" x1="-2" y1="2.4173e-07" x2="28" y2="30" gradientUnits="userSpaceOnUse">
<stop stop-color="#827397"/>
<stop offset="0.497513" stop-color="#9885A2"/>
<stop offset="1" stop-color="#D8B9C3"/>
</linearGradient>
</defs>
</svg>
